<svg viewBox="0 0 123.59 30.18" xmlns="http://www.w3.org/2000/svg"><g fill="#f2f2f2"><path d="m46.21 6.75h-6.84a1 1 0 0 0 -.94.8l-2.76 17.54a.57.57 0 0 0 .56.66h3.27a1 1 0 0 0 .94-.8l.75-4.73a1 1 0 0 1 .94-.8h2.17c4.51 0 7.1-2.18 7.78-6.5a5.27 5.27 0 0 0 -.88-4.42c-.98-1.15-2.7-1.75-4.99-1.75zm.79 6.4c-.37 2.45-2.25 2.45-4.06 2.45h-1l.69-4.6a.57.57 0 0 1 .56-.48h.47c1.24 0 2.4 0 3 .7a2.28 2.28 0 0 1 .34 1.93z"/><path d="m66.65 13.07h-3.27a.57.57 0 0 0 -.56.48l-.15.92-.23-.33c-.71-1-2.29-1.37-3.87-1.37a7.53 7.53 0 0 0 -7.31 6.59 6.18 6.18 0 0 0 1.22 5 5.12 5.12 0 0 0 4.13 1.67 6.27 6.27 0 0 0 4.53-1.87l-.15.91a.57.57 0 0 0 .56.66h2.95a1 1 0 0 0 .94-.8l1.77-11.21a.57.57 0 0 0 -.56-.65zm-4.56 6.37a3.65 3.65 0 0 1 -3.69 3.13 2.54 2.54 0 0 1 -2.71-3.18 3.67 3.67 0 0 1 3.67-3.15 2.76 2.76 0 0 1 2.18.89 2.83 2.83 0 0 1 .55 2.32z"/><path d="m84.1 13.07h-3.3a1 1 0 0 0 -.79.42l-4.54 6.69-1.92-6.43a1 1 0 0 0 -.91-.68h-3.23a.57.57 0 0 0 -.54.75l3.63 10.64-3.41 4.81a.57.57 0 0 0 .46.9h3.29a1 1 0 0 0 .78-.41l10.94-15.76a.57.57 0 0 0 -.46-.93z"/></g><path d="m95 6.75h-6.85a1 1 0 0 0 -.94.8l-2.76 17.54a.57.57 0 0 0 .56.66h3.51a.66.66 0 0 0 .66-.56l.79-5a1 1 0 0 1 .94-.8h2.16c4.51 0 7.11-2.18 7.78-6.5a5.26 5.26 0 0 0 -.85-4.39c-1-1.15-2.72-1.75-5-1.75zm.79 6.41c-.37 2.45-2.25 2.45-4.06 2.45h-1l.68-4.61a.57.57 0 0 1 .56-.48h.47c1.23 0 2.4 0 3 .7a2.28 2.28 0 0 1 .34 1.93z" fill="#a5a5a5"/><path d="m115.43 13.07h-3.27a.57.57 0 0 0 -.56.48l-.14.92-.23-.33c-.71-1-2.29-1.37-3.87-1.37a7.53 7.53 0 0 0 -7.36 6.58 6.18 6.18 0 0 0 1.22 5 5.13 5.13 0 0 0 4.13 1.67 6.27 6.27 0 0 0 4.53-1.87l-.15.91a.57.57 0 0 0 .56.66h2.95a1 1 0 0 0 .94-.8l1.82-11.19a.57.57 0 0 0 -.57-.66zm-4.56 6.37a3.65 3.65 0 0 1 -3.69 3.13 2.54 2.54 0 0 1 -2.71-3.18 3.67 3.67 0 0 1 3.67-3.15 2.76 2.76 0 0 1 2.18.89 2.82 2.82 0 0 1 .55 2.32z" fill="#a5a5a5"/><path d="m119.29 7.23-2.81 17.86a.57.57 0 0 0 .56.66h2.82a1 1 0 0 0 .94-.8l2.77-17.54a.57.57 0 0 0 -.56-.66h-3.16a.57.57 0 0 0 -.56.48z" fill="#a5a5a5"/><path d="m7.27 29.15.52-3.32h-1.16-5.57l3.87-24.54a.32.32 0 0 1 .07-.19.32.32 0 0 1 .24-.1h9.38c3.11 0 5.26.67 6.38 2a4.39 4.39 0 0 1 1 1.92 6.92 6.92 0 0 1 0 2.64v.75l.53.3a3.69 3.69 0 0 1 1.07.81 3.78 3.78 0 0 1 .86 1.94 8.2 8.2 0 0 1 -.12 2.81 9.9 9.9 0 0 1 -1.15 3.18 6.55 6.55 0 0 1 -1.83 2 7.4 7.4 0 0 1 -2.46 1.11 12.26 12.26 0 0 1 -3.07.35h-.73a2.2 2.2 0 0 0 -2.17 1.85l-.06.3-.87 5.82v.22a.18.18 0 0 1 -.06.13.15.15 0 0 1 -.1 0z" fill="#253b80"/><path d="m23 7.67q0 .27-.1.55c-1.24 6.35-5.47 8.55-10.87 8.55h-2.7a1.34 1.34 0 0 0 -1.33 1.12l-1.4 8.94-.4 2.53a.7.7 0 0 0 .7.81h4.88a1.17 1.17 0 0 0 1.16-1v-.25l.92-5.83.06-.32a1.17 1.17 0 0 1 1.16-1h.73c4.73 0 8.43-1.92 9.51-7.48.45-2.32.22-4.26-1-5.62a4.67 4.67 0 0 0 -1.32-1z" fill="#a5a5a5"/><path d="m21.75 7.15-.58-.15-.62-.12a15.28 15.28 0 0 0 -2.43-.18h-7.35a1.17 1.17 0 0 0 -1.16 1l-1.61 9.9v.29a1.34 1.34 0 0 1 1.32-1.13h2.75c5.4 0 9.64-2.19 10.87-8.55 0-.19.07-.37.1-.55a6.59 6.59 0 0 0 -1-.43z" fill="#777"/><path d="m9.61 7.7a1.17 1.17 0 0 1 1.16-1h7.35a15.28 15.28 0 0 1 2.43.18l.62.12.58.15.28.09a6.69 6.69 0 0 1 1 .43c.37-2.35 0-3.94-1.27-5.39s-3.91-2.28-7.14-2.28h-9.38a1.34 1.34 0 0 0 -1.32 1.13l-3.92 24.77a.81.81 0 0 0 .8.93h5.8l1.4-9.23z" fill="#f2f2f2"/></svg>