<svg width="25" height="24" viewBox="0 0 21 24" fill="none" xmlns="http://www.w3.org/2000/svg">
<g clip-path="url(#clip0_433_14155)">
<path d="M6 0.75C6 0.3375 5.6625 0 5.25 0C4.8375 0 4.5 0.3375 4.5 0.75V3H3C1.34531 3 0 4.34531 0 6V7.5V9V21C0 22.6547 1.34531 24 3 24H18C19.6547 24 21 22.6547 21 21V9V7.5V6C21 4.34531 19.6547 3 18 3H16.5V0.75C16.5 0.3375 16.1625 0 15.75 0C15.3375 0 15 0.3375 15 0.75V3H6V0.75ZM1.5 9H19.5V21C19.5 21.8297 18.8297 22.5 18 22.5H3C2.17031 22.5 1.5 21.8297 1.5 21V9ZM3 4.5H18C18.8297 4.5 19.5 5.17031 19.5 6V7.5H1.5V6C1.5 5.17031 2.17031 4.5 3 4.5ZM4.875 12H8.625C8.83125 12 9 12.1687 9 12.375V16.125C9 16.3312 8.83125 16.5 8.625 16.5H4.875C4.66875 16.5 4.5 16.3312 4.5 16.125V12.375C4.5 12.1687 4.66875 12 4.875 12ZM3 12.375V16.125C3 17.1609 3.83906 18 4.875 18H8.625C9.66094 18 10.5 17.1609 10.5 16.125V12.375C10.5 11.3391 9.66094 10.5 8.625 10.5H4.875C3.83906 10.5 3 11.3391 3 12.375Z" fill="#0db08a"/>
</g>
<defs>
<clipPath id="clip0_433_14155">
<rect width="21" height="24" fill="white"/>
</clipPath>
</defs>
</svg>
