<svg width="25" height="24" viewBox="0 0 25 24" fill="none" xmlns="http://www.w3.org/2000/svg">
<g clip-path="url(#clip0_1558_698)">
<path d="M8 18C8.82969 18 9.5 18.6703 9.5 19.5V21.75L14.0984 18.3C14.3563 18.1031 14.675 18 14.9984 18H21.5C22.3297 18 23 17.3297 23 16.5V3C23 2.17031 22.3297 1.5 21.5 1.5H3.5C2.67031 1.5 2 2.17031 2 3V16.5C2 17.3297 2.67031 18 3.5 18H8ZM0.5 3C0.5 1.34531 1.84531 0 3.5 0H21.5C23.1547 0 24.5 1.34531 24.5 3V16.5C24.5 18.1547 23.1547 19.5 21.5 19.5H14.9984L9.2 23.85C8.975 24.0187 8.67031 24.0469 8.4125 23.9203C8.15469 23.7937 8 23.5359 8 23.25V21V19.5H6.5H3.5C1.84531 19.5 0.5 18.1547 0.5 16.5V3Z" fill="#0db08a"/>
</g>
<defs>
<clipPath id="clip0_1558_698">
<rect width="24" height="24" fill="white" transform="translate(0.5)"/>
</clipPath>
</defs>
</svg>
