<svg width="150" height="150" viewBox="0 0 38 38" fill="none" xmlns="http://www.w3.org/2000/svg">
<path d="M20.6529 3.53669V3.53669C20.5868 3.4696 20.5207 3.43606 20.4545 3.40252C20.0248 3.13417 19.5289 3 19.0331 3H18.9669C18.4711 3 17.9752 3.13417 17.5455 3.40252C17.4793 3.43606 17.4132 3.4696 17.3471 3.53669C8.91736 9.13836 3.59504 18.4633 3 28.6939V28.9958C3 30.1027 3.66116 31.1426 4.65289 31.5786C9.08264 33.826 13.9752 35 18.9669 35H19.0661C24.0248 35 28.9174 33.826 33.3471 31.5786C33.4463 31.5451 33.5124 31.478 33.6116 31.4444C34.4711 30.9413 35 30.0021 35 28.9958C35 28.8952 35 28.7945 35 28.6939C34.405 18.4969 29.0826 9.17191 20.6529 3.53669Z" fill="#0DB08A"/>
</svg>
