<svg height="40" viewBox="0 0 122 40" width="122" xmlns="http://www.w3.org/2000/svg"><path d="m46.1.7-15.9 37.9h-10.4l-7.8-30.3c-.5-1.9-.9-2.5-2.3-3.3-3.08087254-1.48282362-6.34157143-2.5585181-9.7-3.2l.2-1.1h16.7c2.2573421.01018844 4.1690745 1.66702315 4.5 3.9l4.1 21.9 10.2-25.8zm40.7 25.5c0-10-13.8-10.6-13.7-15 0-1.4 1.3-2.8 4.2-3.2 3.3271675-.31066856 6.6767805.27637702 9.7 1.7l1.7-8c-2.9360809-1.12742524-6.0549015-1.70372905-9.2-1.7-9.7 0-16.5 5.2-16.6 12.5-.1 5.5 4.9 8.5 8.6 10.3s5.1 3.1 5.1 4.7c0 2.5-3.1 3.7-5.9 3.7-3.5186435.0972693-7.0012357-.7302774-10.1-2.4l-1.8 8.3c3.4627458 1.3898529 7.1693964 2.0699723 10.9 2 10.3.1 17-5 17.1-12.9zm25.6 12.4h9.1l-7.9-37.9h-8.4c-1.843453-.02208474-3.511365 1.08985659-4.2 2.8l-14.8 35.1h10.3l2-5.7h12.6zm-11-13.4 5.2-14.2 3 14.2zm-41.3-24.5-8.1 37.9h-9.8l8.1-37.9z" fill="#fff"/></svg>