<svg enable-background="new 0 0 252.86 156.366" height="156.366" viewBox="0 0 252.86 156.366" width="252.86" xmlns="http://www.w3.org/2000/svg"><path d="m289.425 173.59c0 10.913-8.929 19.843-19.843 19.843h-286.369c-10.913 0-19.843-8.929-19.843-19.843v-190.815c0-10.913 8.929-19.843 19.843-19.843h286.369c10.913 0 19.843 8.929 19.843 19.843z" fill="none"/><path d="m-36.629-37.067h326.041v230.5h-326.041z" fill="none"/><g fill="#fff"><path d="m252.86 155.318v-3.727c0-.541-.337-.812-1.011-.812h-2.36c-.739 0-1.188-.136-1.348-.409-.161-.272-.241-.891-.241-1.854v-14.014h3.949c.256 0 .481-.097.674-.291.192-.194.289-.421.289-.68v-3.933c0-.258-.097-.486-.289-.68-.193-.194-.418-.291-.674-.291h-3.949v-5.105c0-.256-.08-.457-.24-.602-.159-.144-.367-.216-.622-.216h-.144l-5.839 1.011c-.256.065-.479.177-.67.337-.191.161-.287.369-.287.626v3.949h-3.852c-.258 0-.49.105-.699.313-.209.209-.313.442-.313.698v3.179c0 .257.104.474.313.65.209.177.441.297.699.361l3.852.626v13.966c0 1.702.176 3.09.526 4.165.351 1.076.862 1.919 1.532 2.529s1.507 1.019 2.513 1.228c1.005.208 2.162.313 3.472.313.705 0 1.331-.033 1.878-.096.545-.064 1.187-.159 1.926-.287.609-.094.915-.413.915-.954m-20.756-.493v-4.286c0-.257-.089-.458-.265-.602-.177-.145-.393-.217-.65-.217h-.096c-.899.096-1.758.177-2.577.241-.818.064-1.918.096-3.298.096-.547 0-1.06-.088-1.541-.265-.482-.176-.9-.481-1.253-.915-.353-.433-.634-1.011-.842-1.733-.21-.723-.313-1.614-.313-2.673v-4.045c0-1.06.103-1.951.313-2.673.208-.723.489-1.3.842-1.734.353-.433.771-.738 1.253-.915.481-.176.994-.265 1.541-.265 1.38 0 2.48.033 3.298.097.819.064 1.678.144 2.577.24h.096c.257 0 .473-.072.65-.216.176-.145.265-.345.265-.602v-4.286c0-.353-.08-.602-.241-.747-.161-.144-.417-.265-.77-.361-.674-.16-1.55-.32-2.625-.482-1.076-.16-2.335-.24-3.78-.24-3.404 0-6.124 1.043-8.163 3.13s-3.058 5.105-3.058 9.054v4.045c0 3.949 1.019 6.967 3.058 9.053 2.039 2.088 4.759 3.131 8.163 3.131 1.445 0 2.704-.081 3.78-.241 1.075-.161 1.951-.321 2.625-.482.353-.096.609-.216.77-.361.161-.144.241-.393.241-.746m-31.35-5.105c-.578.289-1.197.538-1.854.746-.659.21-1.357.313-2.095.313-1.028 0-1.79-.144-2.288-.433s-.746-.947-.746-1.974v-.434c0-.578.064-1.091.193-1.541.127-.449.352-.819.674-1.108.32-.288.754-.505 1.3-.65.546-.144 1.236-.216 2.071-.216h2.745zm7.657-11.654c0-1.765-.265-3.267-.795-4.503-.53-1.235-1.276-2.247-2.239-3.034-.963-.786-2.143-1.364-3.54-1.733-1.396-.369-2.961-.554-4.695-.554-1.606 0-3.171.113-4.695.337-1.526.225-2.738.45-3.636.674-.611.161-.915.514-.915 1.059v3.901c0 .322.079.547.24.674.161.129.369.193.626.193h.241c.386-.032.867-.072 1.445-.12s1.228-.088 1.95-.121c.723-.031 1.477-.055 2.264-.072.786-.016 1.565-.024 2.335-.024 1.124 0 2.007.209 2.649.626.642.418.963 1.317.963 2.697v1.734h-2.6c-4.142 0-7.152.65-9.03 1.95s-2.817 3.363-2.817 6.188v.434c0 1.573.232 2.889.698 3.948.465 1.06 1.084 1.911 1.854 2.553.771.642 1.645 1.1 2.625 1.372.979.273 1.998.41 3.058.41 1.445 0 2.688-.193 3.732-.578 1.043-.385 2.03-.915 2.962-1.589v.77c0 .257.096.482.289.674.192.193.417.289.674.289h5.394c.256 0 .481-.096.674-.289.192-.192.289-.417.289-.674zm-25.716 17.252v-3.727c0-.541-.337-.812-1.011-.812h-2.36c-.739 0-1.188-.136-1.348-.409-.161-.272-.241-.891-.241-1.854v-14.014h3.949c.256 0 .481-.097.674-.291s.289-.421.289-.68v-3.933c0-.258-.096-.486-.289-.68s-.418-.291-.674-.291h-3.949v-5.105c0-.256-.08-.457-.239-.602-.16-.144-.368-.216-.623-.216h-.143l-5.839 1.011c-.256.065-.48.177-.671.337-.191.161-.287.369-.287.626v3.949h-3.852c-.258 0-.49.105-.699.313-.209.209-.313.442-.313.698v3.179c0 .257.104.474.313.65.209.177.441.297.699.361l3.852.626v13.966c0 1.702.176 3.09.526 4.165.351 1.076.862 1.919 1.532 2.529s1.508 1.019 2.513 1.228c1.005.208 2.162.313 3.472.313.705 0 1.332-.033 1.878-.096.545-.064 1.187-.159 1.926-.287.61-.094.915-.413.915-.954m-20.997-.108v-16.037c0-1.508-.121-2.929-.361-4.261-.241-1.332-.675-2.488-1.301-3.468-.626-.979-1.493-1.758-2.6-2.335-1.108-.578-2.528-.867-4.262-.867-1.541 0-2.906.186-4.094.558s-2.44 1.027-3.756 1.965v-1.167c0-.258-.096-.485-.289-.679-.192-.194-.417-.292-.674-.292h-5.394c-.257 0-.481.096-.674.289-.192.193-.289.418-.289.674v25.62c0 .257.104.49.313.698.209.209.441.313.699.313h5.827c.256 0 .481-.104.674-.312.192-.208.289-.44.289-.697v-18.932c.834-.448 1.621-.816 2.359-1.104.739-.289 1.461-.433 2.168-.433.738 0 1.34.072 1.805.217.465.144.827.392 1.084.745.257.352.433.816.53 1.392.096.577.144 1.282.144 2.115v16c0 .257.097.489.289.697.193.208.417.312.674.312h5.827c.257 0 .49-.104.699-.313.208-.208.313-.441.313-.698m-36.455-11.076c0 3.949-1.421 5.923-4.262 5.923-1.405 0-2.474-.497-3.208-1.493-.735-.995-1.102-2.472-1.102-4.43v-3.371c0-1.958.367-3.427 1.102-4.407.734-.979 1.803-1.469 3.208-1.469 2.841 0 4.262 1.959 4.262 5.876zm7.802-3.371c0-1.927-.266-3.66-.797-5.201s-1.303-2.849-2.316-3.925c-1.013-1.075-2.268-1.91-3.763-2.504-1.496-.594-3.226-.891-5.188-.891s-3.691.297-5.187.891-2.759 1.429-3.788 2.504c-1.03 1.076-1.81 2.384-2.34 3.925-.532 1.541-.797 3.274-.797 5.201v3.371c0 1.926.265 3.66.797 5.201.53 1.541 1.31 2.849 2.34 3.925 1.029 1.076 2.292 1.91 3.788 2.504 1.496.593 3.225.891 5.187.891s3.692-.298 5.188-.891c1.495-.594 2.75-1.428 3.763-2.504s1.785-2.384 2.316-3.925.797-3.275.797-5.201zm-26.728 14.062v-4.286c0-.257-.089-.458-.265-.602-.177-.145-.394-.217-.65-.217h-.097c-.899.096-1.757.177-2.576.241s-1.919.096-3.299.096c-.546 0-1.059-.088-1.541-.265-.482-.176-.899-.481-1.252-.915-.354-.433-.634-1.011-.843-1.733-.209-.723-.313-1.614-.313-2.673v-4.045c0-1.06.104-1.951.313-2.673.209-.723.489-1.3.843-1.734.353-.433.77-.738 1.252-.915.482-.176.995-.265 1.541-.265 1.38 0 2.48.033 3.299.097s1.677.144 2.576.24h.097c.256 0 .473-.072.65-.216.176-.145.265-.345.265-.602v-4.286c0-.353-.081-.602-.241-.747-.161-.144-.418-.265-.771-.361-.674-.16-1.549-.32-2.624-.482-1.076-.16-2.336-.24-3.781-.24-3.403 0-6.124 1.043-8.162 3.13-2.039 2.087-3.058 5.105-3.058 9.054v4.045c0 3.949 1.019 6.967 3.058 9.053 2.038 2.088 4.759 3.131 8.162 3.131 1.445 0 2.705-.081 3.781-.241 1.075-.161 1.95-.321 2.624-.482.353-.096.61-.216.771-.361.16-.144.241-.393.241-.746m-23.694.385v-16.037c0-1.508-.12-2.929-.361-4.261s-.674-2.488-1.3-3.468c-.626-.979-1.493-1.758-2.601-2.335-1.107-.578-2.528-.867-4.262-.867-1.541 0-2.906.186-4.093.558-1.188.372-2.44 1.027-3.756 1.965v-1.167c0-.258-.097-.485-.289-.679-.193-.194-.418-.292-.675-.292h-5.393c-.258 0-.482.096-.674.289-.193.193-.289.418-.289.674v25.62c0 .257.103.49.313.698.208.209.441.313.698.313h5.827c.257 0 .482-.104.674-.312.193-.208.289-.44.289-.697v-18.932c.835-.448 1.621-.816 2.36-1.104.738-.289 1.46-.433 2.167-.433.738 0 1.34.072 1.806.217.465.144.826.392 1.083.745.257.352.434.816.53 1.392.096.577.145 1.282.145 2.115v16c0 .257.096.489.289.697.192.208.416.312.674.312h5.827c.256 0 .489-.104.698-.313.209-.208.313-.441.313-.698m-37.129-5.49c-.578.289-1.197.538-1.854.746-.659.21-1.357.313-2.095.313-1.028 0-1.79-.144-2.288-.433s-.746-.947-.746-1.974v-.434c0-.578.064-1.091.193-1.541.128-.449.353-.819.674-1.108.32-.288.754-.505 1.3-.65.546-.144 1.236-.216 2.071-.216h2.745zm7.657-11.654c0-1.765-.265-3.267-.795-4.503-.529-1.235-1.276-2.247-2.239-3.034-.963-.786-2.143-1.364-3.54-1.733-1.396-.369-2.961-.554-4.695-.554-1.606 0-3.171.113-4.695.337-1.526.225-2.738.45-3.636.674-.61.161-.915.514-.915 1.059v3.901c0 .322.08.547.241.674.16.129.368.193.626.193h.24c.386-.032.867-.072 1.445-.12s1.228-.088 1.951-.121c.722-.031 1.476-.055 2.263-.072.786-.016 1.565-.024 2.336-.024 1.123 0 2.006.209 2.648.626.642.418.963 1.317.963 2.697v1.734h-2.6c-4.142 0-7.152.65-9.03 1.95s-2.817 3.363-2.817 6.188v.434c0 1.573.233 2.889.698 3.948.465 1.06 1.084 1.911 1.854 2.553.771.642 1.645 1.1 2.625 1.372.979.273 1.999.41 3.058.41 1.445 0 2.689-.193 3.732-.578s2.03-.915 2.962-1.589v.77c0 .257.096.482.289.674.193.193.417.289.674.289h5.394c.256 0 .481-.096.674-.289.193-.192.289-.417.289-.674zm-34.384 7.609c0 1.348-.474 2.392-1.421 3.13-.947.739-2.657 1.108-5.129 1.108h-.794c-.37 0-.755-.008-1.156-.024-.402-.016-.787-.025-1.156-.025h-.842v-9.005h5.393c1.926 0 3.258.426 3.997 1.276.738.851 1.108 1.854 1.108 3.01zm-.193-14.351c0 .514-.08 1.004-.241 1.469s-.425.866-.794 1.204c-.37.337-.867.61-1.493.818-.626.209-1.421.313-2.384.313h-5.393v-8.331c.16 0 .409-.008.746-.024s.69-.024 1.059-.024h1.06.794c2.472 0 4.198.313 5.177.939s1.469 1.597 1.469 2.913zm8.187 13.821c0-1.669-.394-3.114-1.18-4.334-.787-1.22-1.822-2.151-3.106-2.793 1.284-.642 2.279-1.59 2.986-2.842.706-1.252 1.059-2.664 1.059-4.237v-.867c0-1.927-.369-3.532-1.107-4.816-.739-1.284-1.775-2.312-3.107-3.082-1.332-.771-2.93-1.324-4.791-1.662-1.863-.337-3.933-.505-6.213-.505-.77 0-1.573.016-2.407.048-.836.032-1.646.072-2.432.12-.787.048-1.51.105-2.167.169-.659.065-1.197.129-1.614.192-.931.162-1.589.45-1.974.867-.385.418-.578 1.173-.578 2.264v29.28c0 1.091.2 1.846.602 2.263.401.418 1.083.706 2.047.867.481.096 1.059.176 1.733.241.674.064 1.404.12 2.191.168s1.597.088 2.432.121c.835.031 1.653.048 2.456.048 2.087 0 4.053-.161 5.9-.482 1.845-.32 3.45-.891 4.815-1.71 1.365-.818 2.448-1.926 3.251-3.322.802-1.397 1.204-3.155 1.204-5.274z"/><path d="m221.323 27.331h-72.238l-44.594 50.767h-81.342l23.448-26.217h-10.894-15.227-8.53c-6.499 0-11.817 5.453-11.817 12.117v.001 23.4 2.166c0 6.665 5.318 12.118 11.817 12.118h3.32 119.984 8.889c6.499 0 15.377-4.05 19.729-9l20.601-23.432z"/><path d="m241.043 0h-131.802c-6.499 0-15.389 4.039-19.756 8.976l-57.819 65.377h70.499l45.022-50.645h82.4l-22.849 26.094h34.306c6.499 0 11.817-5.454 11.817-12.118v-25.566c-.001-6.665-5.319-12.118-11.818-12.118z"/></g></svg>