<svg viewBox="0 0 403.06 72" xmlns="http://www.w3.org/2000/svg"><path d="m44.5 36a35.94 35.94 0 0 1 13.75-28.3 36 36 0 1 0 0 56.61 35.94 35.94 0 0 1 -13.75-28.31z" fill="#e5e5e5"/><path d="m80.49 0a35.84 35.84 0 0 0 -22.24 7.7 36 36 0 0 1 0 56.61 36 36 0 1 0 22.24-64.31z" fill="#c1c1c1"/><g fill="#fff"><path d="m349.52 27.09a9.08 9.08 0 0 0 -7.52-3.51c-6.71 0-12 5.26-12 12.57s5.26 12.57 12 12.57a9.08 9.08 0 0 0 7.56-3.51v2.91h5.21v-23.94h-5.21zm-6.91 16.73c-4.51 0-7.26-3.46-7.26-7.66s2.75-7.66 7.26-7.66c4.31 0 7.21 3.31 7.21 7.66s-2.91 7.66-7.21 7.66z"/><path d="m366.75 27.09v-2.9h-5.16v23.94h5.21v-13.43c0-4 1.7-6.16 5.11-6.16a8.49 8.49 0 0 1 3.26.6l1.6-4.91a11.13 11.13 0 0 0 -3.71-.65 7.06 7.06 0 0 0 -6.31 3.51z"/><path d="m294.37 27.09v-2.9h-5.16v23.94h5.21v-13.43c0-4 1.7-6.16 5.11-6.16a8.48 8.48 0 0 1 3.26.6l1.6-4.91a11.13 11.13 0 0 0 -3.71-.65 7.06 7.06 0 0 0 -6.31 3.51z"/><path d="m397.85 14.57v12.52a9.08 9.08 0 0 0 -7.56-3.51c-6.71 0-12 5.26-12 12.57s5.26 12.57 12 12.57a9.08 9.08 0 0 0 7.56-3.51v2.91h5.21v-33.55zm-6.91 29.25c-4.51 0-7.26-3.46-7.26-7.66s2.75-7.66 7.26-7.66c4.31 0 7.21 3.31 7.21 7.66s-2.9 7.66-7.21 7.66z"/><path d="m318.57 28.49a10.52 10.52 0 0 1 6.26 2.15l2.5-4.21a12.54 12.54 0 0 0 -8.61-2.86c-7.71 0-12.77 5.31-12.77 12.57s5.05 12.59 12.77 12.59a12.54 12.54 0 0 0 8.61-2.86l-2.5-4.21a10.52 10.52 0 0 1 -6.26 2.15c-4.16 0-7.21-3.06-7.21-7.66s3.05-7.61 7.21-7.66z"/><path d="m169 23.58a9.27 9.27 0 0 0 -8.41 4.26 8.79 8.79 0 0 0 -7.91-4.26 7.92 7.92 0 0 0 -7 3.56v-3h-5.21v23.99h5.26v-13.28c0-4.16 2.3-6.36 5.86-6.36s5.21 2.25 5.21 6.31v13.33h5.2v-13.28c0-4.16 2.4-6.36 5.86-6.36s5.26 2.25 5.26 6.31v13.33h5.26v-15c.04-5.69-3.56-9.5-9.38-9.55z"/><path d="m202.56 27.09a9.08 9.08 0 0 0 -7.56-3.51c-6.71 0-12 5.26-12 12.57s5.26 12.57 12 12.57a9.08 9.08 0 0 0 7.56-3.51v2.91h5.21v-23.94h-5.21zm-6.91 16.73c-4.51 0-7.26-3.46-7.26-7.66s2.75-7.66 7.26-7.66c4.31 0 7.21 3.31 7.21 7.66s-2.86 7.66-7.21 7.66z"/><path d="m225.75 33.75-2.45-.35c-2.25-.3-4.06-.75-4.06-2.35 0-1.75 1.7-2.8 4.56-2.8a15.43 15.43 0 0 1 7.46 2.05l2.25-4.21a17.9 17.9 0 0 0 -9.77-2.5c-6.06 0-10 2.91-10 7.66 0 3.91 2.91 6.31 8.26 7.06l2.45.35c2.85.4 4.21 1.15 4.21 2.5 0 1.85-1.9 2.9-5.46 2.9a12.76 12.76 0 0 1 -8-2.5l-2.45 4.06a17.27 17.27 0 0 0 10.37 3.11c6.91 0 10.92-3.26 10.92-7.81.08-4.21-3.04-6.42-8.29-7.17z"/><path d="m251.2 43.77c-2.6 0-3.46-1.6-3.46-4v-10.83h8.51v-4.76h-8.51v-7.26h-5.26v7.26h-4.86v4.76h4.86v10.92c0 5.56 2.15 8.87 8.31 8.87a12.24 12.24 0 0 0 6.51-1.85l-1.5-4.46a9.62 9.62 0 0 1 -4.6 1.35z"/><path d="m272.49 23.58c-7 0-11.92 5.11-11.92 12.57 0 7.61 5.11 12.57 12.27 12.57a14.55 14.55 0 0 0 9.82-3.36l-2.55-3.86a11.41 11.41 0 0 1 -7 2.5c-3.36 0-6.41-1.55-7.16-5.86h17.78c.05-.65.1-1.3.1-2-.03-7.45-4.63-12.56-11.34-12.56zm-6.49 10.47c.55-3.46 2.65-5.81 6.36-5.81 3.36 0 5.51 2.1 6.06 5.81z"/></g></svg>