<svg height="20" viewBox="0 0 21 20" width="21" xmlns="http://www.w3.org/2000/svg"><path d="m16.5288214 4.7752381c.00039.46806372-.2847633.89026201-.7224726 1.06969369-.4377094.17943168-.9417587.08075391-1.2770738-.25001283s-.4358487-.82847098-.2547148-1.26099775c.181134-.43252677.6082573-.71468081 1.0821719-.71487359.6468727-.00026313 1.171557.5173041 1.1720893 1.15619048zm3.7211786 5.2247619v.0147619l-.0665357 4.1957143c-.0359585 3.1463447-2.6096832 5.6882949-5.7953572 5.7238095l-4.2631071.0657143h-.0149464l-4.24816074-.0657143c-3.18556669-.0357664-5.75914367-2.5775708-5.79535715-5.7238095l-.06653571-4.2104762v-.0147619l.06653571-4.19571429c.03621856-3.14642169 2.61008432-5.68829987 5.79583929-5.72380952l4.262625-.06571429h.0149464l4.2481607.06571429c3.185674.03551459 5.7593987 2.57746484 5.7953572 5.72380952zm-1.8856607 0-.0660536-4.18095238c-.0242374-2.13918266-1.774149-3.86749034-3.9400714-3.89142857l-4.2332143-.0652381-4.23321429.0652381c-2.16581511.02419011-3.91557893 1.75235191-3.94007142 3.89142857l-.06605358 4.18095238.06605358 4.1809524c.02423745 2.1391826 1.77414898 3.8674903 3.94007142 3.8914286l4.23321429.065238 4.2332143-.065238c2.1657341-.0241951 3.9153568-1.752429 3.9395893-3.8914286zm-3.0375 0c-.0000003 2.8358037-2.3273742 5.1347994-5.1986254 5.1352375-2.87125118.0004381-5.19934411-2.2978474-5.20023151-5.1336509-.0008874-2.83580358 2.32576669-5.13550988 5.19701761-5.1368247 2.8698035.00419598 5.1951802 2.30086426 5.1994286 5.1352381zm-1.8856607 0c-.0000005-1.80723904-1.4831354-3.27241825-3.3129649-3.27285618-1.82982948-.00043793-3.31368317 1.4640312-3.31457045 3.27127003-.00088729 1.80723885 1.4815277 3.27312855 3.31135675 3.27444325 1.8292623-.0020992 3.3116424-1.4661783 3.3137679-3.2728571z" fill="#0db08a" transform="translate(.75)"/></svg>