<svg fill="#0db08a" height="181px" width="181px" version="1.1" id="Layer_1" xmlns="http://www.w3.org/2000/svg" xmlns:xlink="http://www.w3.org/1999/xlink" viewBox="0 0 512.001 512.001" xml:space="preserve">
    <g id="SVGRepo_bgCarrier" stroke-width="0"></g>
    <g id="SVGRepo_tracerCarrier" stroke-linecap="round" stroke-linejoin="round"></g>
    <g id="SVGRepo_iconCarrier">
        <g>
            <g>
                <path stroke="#0db08a" stroke-width="8" d="M509.949,466.581L268.467,96.689l33.801-51.774c3.155-4.832,1.795-11.306-3.036-14.461 c-4.835-3.156-11.307-1.795-14.461,3.036l-18.333,28.082v-9.087c0-5.77-4.678-10.449-10.449-10.449 c-5.77,0-10.449,4.679-10.449,10.449v9.087l-18.333-28.08c-3.154-4.831-9.629-6.195-14.461-3.036 c-4.831,3.154-6.192,9.628-3.036,14.461l33.801,51.774L1.699,467.086c-2.097,3.212-2.265,7.314-0.439,10.687 c1.825,3.373,5.353,5.474,9.188,5.474h491.082c0.007-0.001,0.015-0.001,0.021,0c5.771,0,10.449-4.679,10.449-10.449 C512,470.47,511.237,468.318,509.949,466.581z M201.555,462.35l54.434-178.377l54.434,178.377H201.555z M182.046,454.688 l-45.314-37.811l92.958-118.314L182.046,454.688z M282.289,298.562l92.958,118.314l-45.314,37.811L282.289,298.562z M353.365,462.35l43.058-35.929c4.339-3.62,5.013-10.035,1.522-14.477L264.205,241.721c-3.563-4.538-10.133-5.329-14.671-1.761 c-0.677,0.533-1.244,1.148-1.752,1.798c-0.003-0.013-0.006-0.023-0.009-0.037L114.031,411.945 c-3.491,4.443-2.817,10.857,1.522,14.476l43.058,35.929H29.748l226.241-346.548L482.231,462.35H353.365z"></path>
            </g>
        </g>
    </g>
</svg>
