<svg viewBox="0 0 101.24 88.27" xmlns="http://www.w3.org/2000/svg"><path d="m34.89 32.45v9.29z" fill="none"/><g fill="#fff"><path d="m11.25 49.69h16.22v26.94h-16.22z"/><circle cx="19.52" cy="36.22" r="9.18"/><path d="m97.8 24.21a36.31 36.31 0 0 0 -9.61-13.89c-7.38-6.56-17.73-10.1-29.98-10.32h-58.21v88.27h58.21c12.71-.17 22.79-3.33 29.93-9.41 8.69-7.4 13.1-19.07 13.1-34.71a53.85 53.85 0 0 0 -3.44-19.94zm-40.69 58.2h-51.25v-76.55h51.25c11.28 0 20.68 3.06 27.19 8.84 7.36 6.54 11.09 16.44 11.09 29.43-.01 25.76-12.53 38.28-38.28 38.28z"/><path d="m70.34 38.26-1.51-4-1.47 4z" opacity=".5"/><path d="m78.8 29.14h3.93v12.59h7.27c-1.5-22.52-18.91-28.73-35.33-28.73h-19.74v16h2.07a11.3 11.3 0 0 1 3 .31 5.56 5.56 0 0 1 2.49 1.52 7.14 7.14 0 0 1 1.55 2.63 11.77 11.77 0 0 1 .52 3.76 10.54 10.54 0 0 1 -.49 3.4 7.2 7.2 0 0 1 -1.67 2.88 5.87 5.87 0 0 1 -2.34 1.32 9.8 9.8 0 0 1 -2.86.34h-2.27v31.49h19.74c17.11 0 35.31-5.14 35.43-31.49h-11.3zm-19 16h-12.51v-16.14h12.18v3.43h-8.25v2.57h7.67v3.43h-7.67v3.3h8.54zm13.22 0-1.34-3.48h-5.57l-1.27 3.48h-4.19l6.28-16.14h3.86l6.46 16.15z" opacity=".5"/><path d="m39.55 33.2a2.57 2.57 0 0 0 -1.24-.62 13.16 13.16 0 0 0 -2.45-.14h-.93v9.29h1.85a8.17 8.17 0 0 0 1.77-.13 2.47 2.47 0 0 0 1.07-.54 2.86 2.86 0 0 0 .69-1.29 9.59 9.59 0 0 0 .3-2.68 8.76 8.76 0 0 0 -.29-2.59 3.1 3.1 0 0 0 -.77-1.3z" opacity=".5"/></g></svg>